{"accessors" : [{"bufferView" : 0, "byteOffset" : 0, "componentType" : 5123, "count" : 324, "type" : "SCALAR", "max" : [323], "min" : [0]}, {"bufferView" : 1, "byteOffset" : 0, "componentType" : 5126, "count" : 324, "type" : "VEC3", "max" : [6.058886528015137, 0.5000003576278687, 2.348930835723877], "min" : [-6.058886528015137, -0.5000004172325134, -2.348930835723877], "name" : "POSITION"}, {"bufferView" : 1, "byteOffset" : 12, "componentType" : 5126, "count" : 324, "type" : "VEC3", "max" : [0.930807888507843, 1.0000044107437134, 0.9998630285263062], "min" : [-1.0000044107437134, -1.0000044107437134, -0.9998630285263062], "name" : "NORMAL"}, {"bufferView" : 1, "byteOffset" : 24, "componentType" : 5126, "count" : 324, "type" : "VEC2", "max" : [0.9870268106460571, -0.010728782042860985], "min" : [0.006224204320460558, -0.9908186793327332], "name" : "TEXCOORD_0"}], "asset" : {"generator" : "Aspose.3D 22.1", "version" : "2.0"}, "buffers" : [{"uri" : "data:application/octet-stream;base64,", "byteLength" : 11024}], "bufferViews" : [{"buffer" : 0, "byteOffset" : 0, "byteLength" : 648, "target" : 34963}, {"buffer" : 0, "byteOffset" : 652, "byteLength" : 10368, "byteStride" : 32, "target" : 34962}], "images" : [{"uri" : "F:\\M n B\\_MESH\\A mesh\\Arrow 5\\Arrow5Normal.png"}, {"uri" : "F:\\M n B\\_MESH\\A mesh\\Arrow 5\\Arrow5Albedo.png"}], "materials" : [{"name" : "", "pbrMetallicRoughness" : {"baseColorFactor" : [1, 1, 1, 1], "baseColorTexture" : {"index" : 1, "texCoord" : 0}, "metallicFactor" : 0, "roughnessFactor" : 0}, "normalTexture" : {"index" : 0, "texCoord" : 0, "scale" : 1}, "emissiveFactor" : [0, 0, 0], "alphaMode" : "OPAQUE", "doubleSided" : false}], "meshes" : [{"primitives" : [{"attributes" : {"POSITION" : 1, "NORMAL" : 2, "TEXCOORD_0" : 3}, "indices" : 0, "material" : 0, "mode" : 4}], "name" : ""}], "nodes" : [{"matrix" : [0.0254, 0, 0, 0, 0, 5.639932965095795E-18, -0.0254, 0, 0, 0.0254, 5.639932965095795E-18, 0, 0, 0, 0, 1], "mesh" : 0, "name" : "Arrow5"}], "samplers" : [{"magFilter" : 9729, "minFilter" : 9729, "wrapS" : 10497, "wrapT" : 10497}, {"magFilter" : 9729, "minFilter" : 9729, "wrapS" : 10497, "wrapT" : 10497}], "scene" : 0, "scenes" : [{"nodes" : [0]}], "textures" : [{"sampler" : 0, "source" : 0}, {"sampler" : 1, "source" : 1}]}