{"accessors" : [{"bufferView" : 0, "byteOffset" : 0, "componentType" : 5123, "count" : 55524, "type" : "SCALAR", "max" : [55523], "min" : [0]}, {"bufferView" : 1, "byteOffset" : 0, "componentType" : 5126, "count" : 55524, "type" : "VEC3", "max" : [0.19936123490333557, -0.3710215985774994, 0.07162511348724365], "min" : [-0.1994168907403946, -0.7186406850814819, 3.7933699786663055E-05], "name" : "POSITION"}, {"bufferView" : 1, "byteOffset" : 12, "componentType" : 5126, "count" : 55524, "type" : "VEC3", "max" : [1.0000044107437134, 1.0000044107437134, 1.0000044107437134], "min" : [-1.0000044107437134, -1.0000044107437134, -1.0000044107437134], "name" : "NORMAL"}, {"bufferView" : 1, "byteOffset" : 24, "componentType" : 5126, "count" : 55524, "type" : "VEC2", "max" : [0.9910369515419006, -0.0024680858477950096], "min" : [0.0024609402753412724, -0.9565098285675049], "name" : "TEXCOORD_0"}, {"bufferView" : 0, "byteOffset" : 111048, "componentType" : 5123, "count" : 2874, "type" : "SCALAR", "max" : [2873], "min" : [0]}, {"bufferView" : 2, "byteOffset" : 0, "componentType" : 5126, "count" : 2874, "type" : "VEC3", "max" : [4.860146522521973, 57.066810607910156, 510.1011047363281], "min" : [-149.36026000976562, 53.60026931762695, 406.03656005859375], "name" : "POSITION"}, {"bufferView" : 2, "byteOffset" : 12, "componentType" : 5126, "count" : 2874, "type" : "VEC3", "max" : [1.0000044107437134, 1.0000044107437134, 1.0000044107437134], "min" : [-1.0000044107437134, -1.0000044107437134, -1.0000042915344238], "name" : "NORMAL"}, {"bufferView" : 0, "byteOffset" : 116796, "componentType" : 5123, "count" : 1470, "type" : "SCALAR", "max" : [1469], "min" : [0]}, {"bufferView" : 3, "byteOffset" : 0, "componentType" : 5126, "count" : 1470, "type" : "VEC3", "max" : [-100.4284439086914, 59.520301818847656, 453.37603759765625], "min" : [-131.48277282714844, 55.62242126464844, 419.32470703125], "name" : "POSITION"}, {"bufferView" : 3, "byteOffset" : 12, "componentType" : 5126, "count" : 1470, "type" : "VEC3", "max" : [1.0000044107437134, 1.0000044107437134, 1.0000044107437134], "min" : [-1.0000044107437134, -1.0000044107437134, -1.0000044107437134], "name" : "NORMAL"}, {"bufferView" : 0, "byteOffset" : 119736, "componentType" : 5123, "count" : 13098, "type" : "SCALAR", "max" : [13097], "min" : [0]}, {"bufferView" : 4, "byteOffset" : 0, "componentType" : 5126, "count" : 13098, "type" : "VEC3", "max" : [201.31103515625, 56.01026153564453, 556.076416015625], "min" : [-201.36642456054688, 12.03803825378418, 406.03656005859375], "name" : "POSITION"}, {"bufferView" : 4, "byteOffset" : 12, "componentType" : 5126, "count" : 13098, "type" : "VEC3", "max" : [1.0000044107437134, 1.0000044107437134, 1.0000044107437134], "min" : [-1.0000044107437134, -1.0000044107437134, -1.0000044107437134], "name" : "NORMAL"}, {"bufferView" : 4, "byteOffset" : 24, "componentType" : 5126, "count" : 13098, "type" : "VEC2", "max" : [0.9878273010253906, -0.12618239223957062], "min" : [0.14766180515289307, -0.995530903339386], "name" : "TEXCOORD_0"}], "asset" : {"generator" : "Aspose.3D 21.12", "version" : "2.0"}, "buffers" : [{"uri" : "data:application/octet-stream;base64,", "byteLength" : 2446112}], "bufferViews" : [{"buffer" : 0, "byteOffset" : 0, "byteLength" : 145932, "target" : 34963}, {"buffer" : 0, "byteOffset" : 145936, "byteLength" : 1776768, "byteStride" : 32, "target" : 34962}, {"buffer" : 0, "byteOffset" : 1922708, "byteLength" : 68976, "byteStride" : 24, "target" : 34962}, {"buffer" : 0, "byteOffset" : 1991688, "byteLength" : 35280, "byteStride" : 24, "target" : 34962}, {"buffer" : 0, "byteOffset" : 2026972, "byteLength" : 419136, "byteStride" : 32, "target" : 34962}], "materials" : [{"name" : "", "pbrMetallicRoughness" : {"baseColorFactor" : [0.027450980618596077, 0.027450980618596077, 0.027450980618596077, 1], "metallicFactor" : 0, "roughnessFactor" : 0}, "emissiveFactor" : [0, 0, 0], "alphaMode" : "OPAQUE", "doubleSided" : false}, {"name" : "", "pbrMetallicRoughness" : {"baseColorFactor" : [0.699999988079071, 0.699999988079071, 0.699999988079071, 1], "metallicFactor" : 0, "roughnessFactor" : 0}, "emissiveFactor" : [1, 1, 1], "alphaMode" : "OPAQUE", "doubleSided" : false}, {"name" : "", "pbrMetallicRoughness" : {"baseColorFactor" : [0.699999988079071, 0.699999988079071, 0.699999988079071, 1], "metallicFactor" : 0, "roughnessFactor" : 0}, "emissiveFactor" : [1, 1, 1], "alphaMode" : "OPAQUE", "doubleSided" : false}, {"name" : "", "pbrMetallicRoughness" : {"baseColorFactor" : [0.027450980618596077, 0.027450980618596077, 0.027450980618596077, 1], "metallicFactor" : 0, "roughnessFactor" : 0}, "emissiveFactor" : [0, 0, 0], "alphaMode" : "OPAQUE", "doubleSided" : false}], "meshes" : [{"primitives" : [{"attributes" : {"POSITION" : 1, "NORMAL" : 2, "TEXCOORD_0" : 3}, "indices" : 0, "material" : 0, "mode" : 4}], "name" : "_ncl1_4"}, {"primitives" : [{"attributes" : {"POSITION" : 5, "NORMAL" : 6}, "indices" : 4, "material" : 1, "mode" : 4}], "name" : "_ncl1_5"}, {"primitives" : [{"attributes" : {"POSITION" : 8, "NORMAL" : 9}, "indices" : 7, "material" : 2, "mode" : 4}], "name" : "_ncl1_6"}, {"primitives" : [{"attributes" : {"POSITION" : 11, "NORMAL" : 12, "TEXCOORD_0" : 13}, "indices" : 10, "material" : 3, "mode" : 4}], "name" : "_ncl1_7"}], "nodes" : [{"matrix" : [1000, 0, 0, 0, 0, -0.00013315805436064918, -999.999999999991, 0, 0, 999.999999999991, -0.00013315805436064918, 0, 0, 0, -524.0818481445312, 1], "mesh" : 0, "name" : "khay_duoi:khay_duoi_ncl1_1"}, {"children" : [0], "name" : "khay_duoi:khay_duoi"}, {"matrix" : [1, 0, 0, 0, 0, 1, 0, 0, 0, 0, 1, 0, 0, 0, -336.82869753687197, 1], "mesh" : 1, "name" : "nap_trong"}, {"matrix" : [1, 0, 0, 0, 0, 1, 0, 0, 0, 0, 1, 0, 0, 0, -336.82869753687197, 1], "mesh" : 2, "name" : "nap_cao_su"}, {"matrix" : [1, 0, 0, 0, 0, 1, 0, 0, 0, 0, 1, 0, 0, 0, -336.82869753687197, 1], "mesh" : 3, "name" : "nap_den"}], "scene" : 0, "scenes" : [{"nodes" : [1, 2, 3, 4]}]}